
<svg xmlns="http://www.w3.org/2000/svg" xmlns:xlink="http://www.w3.org/1999/xlink" preserveAspectRatio="xMidYMid" width="11" height="7.968" viewBox="0 0 11 7.968">
  <defs>
    <style>
      .cls-1 {
        fill: #fff;
        fill-rule: evenodd;
      }
    </style>
  </defs>
  <path d="M3.994,5.860 C4.070,5.754 4.122,5.657 4.197,5.582 C5.916,3.846 7.638,2.112 9.359,0.379 C9.428,0.309 9.497,0.237 9.573,0.175 C9.908,-0.103 10.378,-0.093 10.700,0.195 C11.032,0.491 11.096,0.966 10.846,1.339 C10.787,1.427 10.712,1.505 10.637,1.581 C8.656,3.579 6.674,5.575 4.692,7.572 C4.663,7.601 4.635,7.630 4.605,7.659 C4.191,8.057 3.702,8.068 3.296,7.664 C2.282,6.654 1.274,5.638 0.271,4.617 C-0.112,4.227 -0.111,3.687 0.249,3.334 C0.599,2.990 1.124,2.998 1.504,3.374 C2.269,4.133 3.025,4.901 3.786,5.664 C3.832,5.711 3.880,5.754 3.994,5.860 Z" class="cls-1"/>
</svg>
