<?xml version="1.0" standalone="no"?>
<!DOCTYPE svg PUBLIC "-//W3C//DTD SVG 20010904//EN"
 "http://www.w3.org/TR/2001/REC-SVG-20010904/DTD/svg10.dtd">
<svg version="1.0" xmlns="http://www.w3.org/2000/svg"
 width="1310.000000pt" height="596.000000pt" viewBox="0 0 1310.000000 596.000000"
 preserveAspectRatio="xMidYMid meet">

<g transform="translate(0.000000,596.000000) scale(0.100000,-0.100000)"
fill="#575756" stroke="none">
<path d="M4 5947 c-2 -8 -3 -810 -1 -1783 3 -1904 1 -1815 53 -2054 22 -98 87
-286 126 -364 234 -467 702 -754 1373 -842 93 -13 205 -18 392 -18 144 -1 264
2 267 5 6 6 376 1029 376 1040 0 5 -27 -9 -60 -30 -71 -46 -195 -93 -312 -118
-118 -25 -421 -25 -529 0 -267 63 -464 251 -558 532 -63 189 -61 134 -61 1974
l0 1671 -530 0 c-431 0 -532 -2 -536 -13z" fill="#B91116" fill-rule="evenodd"/>
<path d="M2901 4358 c0 -1393 2 -1598 14 -1568 8 19 249 685 535 1479 l521
1444 -3 121 -3 121 -532 3 -533 2 1 -1602z" fill="#B91116" fill-rule="evenodd"/>
<path d="M7900 3430 l0 -2530 545 0 545 0 0 1125 0 1125 968 -2 967 -3 3
-1127 2 -1128 555 0 555 0 0 2535 0 2535 -555 0 -555 0 -2 -952 -3 -953 -967
-3 -968 -2 -2 952 -3 953 -542 3 -543 2 0 -2530z" fill="#511013" fill-rule="evenodd"/>
<path d="M12708 5946 c-72 -15 -146 -65 -187 -125 -40 -59 -51 -99 -51 -182 0
-116 70 -222 179 -273 36 -16 66 -21 136 -21 78 0 97 4 141 27 101 53 165 153
167 262 4 130 -54 229 -163 283 -77 38 -144 47 -222 29z m189 -86 c127 -73
158 -257 63 -372 -106 -128 -320 -97 -391 57 -23 50 -25 151 -3 203 53 128
210 181 331 112z" fill="#511013" fill-rule="evenodd"/>
<path d="M12667 5793 c-4 -3 -7 -73 -7 -155 l0 -148 35 0 35 0 0 60 c0 60 0
60 29 60 49 0 60 -10 77 -66 15 -54 16 -54 56 -54 31 0 39 3 35 14 -3 8 -11
34 -17 58 -7 24 -21 53 -32 65 -20 21 -20 21 0 27 11 4 25 20 32 36 16 38 -1
82 -36 99 -27 12 -196 16 -207 4z m161 -55 c30 -30 6 -65 -52 -75 l-36 -6 0
47 0 46 38 0 c21 0 43 -5 50 -12z" fill="#511013" fill-rule="evenodd"/>
<path d="M4217 5908 c-8 -24 -412 -1154 -897 -2513 -485 -1359 -885 -2478
-887 -2488 -5 -16 25 -17 567 -15 l572 3 177 517 176 518 920 0 920 0 125
-410 125 -410 3 1646 2 1646 -272 774 -273 774 -622 0 -621 0 -15 -42z m932
-2123 c165 -527 299 -961 297 -962 -2 -2 -280 -2 -618 -1 l-616 3 289 900
c159 495 299 931 310 968 12 38 25 65 29 60 5 -4 143 -440 309 -968z" fill="#E24622" fill-rule="evenodd"/>
<path d="M6180 3425 l0 -2525 780 0 780 0 0 460 0 460 -255 0 -255 0 0 665 0
665 255 0 255 0 0 450 0 450 -255 0 -255 0 0 500 0 500 255 0 255 0 0 450 0
450 -780 0 -780 0 0 -2525z" fill="#F8B688" fill-rule="evenodd"/>
<path d="M9150 5495 l0 -445 430 0 430 0 0 445 0 445 -430 0 -430 0 0 -445z" fill="#f8b688" fill-rule="evenodd"/>
<path d="M9150 1350 l0 -450 430 0 430 0 0 450 0 450 -430 0 -430 0 0 -450z" fill="#F8B688" fill-rule="evenodd"/>
<path d="M4476 510 c-23 -36 -24 -40 -8 -40 10 0 36 18 57 40 l39 40 -31 0
c-24 0 -35 -8 -57 -40z" fill="#575756" fill-rule="evenodd"/>
<path d="M380 384 c0 -188 9 -216 78 -247 53 -23 134 -19 177 9 50 32 58 65
63 237 l4 157 -26 0 -26 0 0 -122 c-1 -147 -10 -195 -45 -226 -37 -31 -104
-30 -142 2 l-28 24 -3 161 -3 161 -25 0 -24 0 0 -156z"/>
<path d="M1100 515 c0 -20 5 -25 25 -25 20 0 25 5 25 25 0 20 -5 25 -25 25
-20 0 -25 -5 -25 -25z"/>
<path d="M2310 515 c0 -20 5 -25 25 -25 20 0 25 5 25 25 0 20 -5 25 -25 25
-20 0 -25 -5 -25 -25z"/>
<path d="M2630 469 l0 -70 -22 15 c-30 21 -107 20 -134 -2 -36 -28 -54 -76
-54 -140 0 -66 25 -116 70 -140 31 -16 95 -9 119 12 22 20 31 20 31 1 0 -8 9
-15 20 -15 19 0 20 7 20 205 l0 205 -25 0 c-24 0 -25 -2 -25 -71z m-26 -98
c45 -50 40 -151 -11 -190 -35 -28 -59 -26 -94 8 -24 25 -29 37 -29 81 0 52 19
104 42 113 30 12 76 6 92 -12z"/>
<path d="M3270 469 l0 -70 -22 15 c-13 9 -43 16 -71 16 -42 0 -53 -5 -78 -31
-33 -35 -43 -78 -37 -155 4 -46 10 -61 37 -87 27 -27 39 -32 80 -32 33 0 55 6
68 17 24 22 33 23 33 3 0 -8 9 -15 20 -15 19 0 20 7 20 205 l0 205 -25 0 c-24
0 -25 -2 -25 -71z m-25 -104 c21 -20 25 -34 25 -85 0 -55 -3 -65 -29 -91 -35
-34 -59 -36 -94 -8 -35 27 -51 87 -37 139 19 70 88 93 135 45z" />
<path d="M3639 513 c-52 -135 -139 -371 -139 -377 0 -4 12 -6 26 -4 23 3 30
12 48 63 l21 60 80 0 79 0 25 -62 c22 -57 27 -63 52 -63 l28 0 -40 112 c-22
62 -55 154 -73 203 -31 86 -33 90 -64 93 -27 3 -34 -1 -43 -25z m75 -132 c15
-41 25 -76 22 -78 -2 -2 -31 -3 -64 -1 l-59 3 30 83 c16 46 33 79 37 75 5 -4
20 -41 34 -82z" />
<path d="M6500 470 c0 -38 -3 -70 -7 -70 -5 0 -17 7 -27 15 -24 18 -85 19
-120 3 -56 -25 -84 -147 -52 -223 29 -68 125 -96 175 -51 22 20 31 20 31 1 0
-8 9 -15 20 -15 19 0 20 7 20 205 0 198 -1 205 -20 205 -18 0 -20 -7 -20 -70z
m-26 -113 c25 -34 28 -110 7 -150 -20 -38 -67 -55 -100 -36 -34 19 -51 54 -51
107 0 45 21 96 42 106 33 13 81 0 102 -27z" />
<path d="M6940 335 l0 -205 25 0 25 0 0 205 0 205 -25 0 -25 0 0 -205z"/>
<path d="M7240 335 l0 -205 150 0 150 0 0 25 0 25 -125 0 -125 0 0 70 0 70
110 0 c103 0 110 1 110 20 0 19 -7 20 -110 20 l-110 0 0 65 0 65 120 0 120 0
0 25 0 25 -145 0 -145 0 0 -205z" />
<path d="M8570 469 l0 -71 -25 16 c-13 9 -45 16 -70 16 -57 0 -98 -35 -115
-100 -29 -107 28 -210 115 -210 31 0 81 24 88 42 3 7 6 3 6 -9 1 -16 7 -23 21
-23 19 0 20 7 20 205 0 198 -1 205 -20 205 -18 0 -20 -7 -20 -71z m-45 -85
c44 -17 60 -125 25 -181 -55 -91 -167 -14 -146 99 13 71 62 104 121 82z" />
<path d="M9370 470 c0 -70 -7 -83 -30 -55 -8 10 -30 15 -60 15 -83 0 -130 -59
-130 -163 0 -112 100 -180 188 -127 26 16 32 17 32 5 0 -8 9 -15 20 -15 19 0
20 7 20 205 0 198 -1 205 -20 205 -18 0 -20 -7 -20 -70z m-31 -104 c47 -50 33
-172 -23 -197 -64 -29 -120 30 -113 119 7 93 82 136 136 78z" />
<path d="M9980 335 l0 -205 25 0 c24 0 24 1 27 98 l3 97 105 0 105 0 3 -97 c3
-97 3 -98 27 -98 l25 0 0 205 0 205 -25 0 c-24 0 -24 -2 -27 -82 l-3 -83 -107
-3 -108 -3 0 86 c0 84 0 85 -25 85 l-25 0 0 -205z" />
<path d="M10380 515 c0 -20 5 -25 25 -25 20 0 25 5 25 25 0 20 -5 25 -25 25
-20 0 -25 -5 -25 -25z" />
<path d="M10710 470 c0 -70 -7 -83 -30 -55 -8 10 -30 15 -60 15 -83 0 -130
-59 -130 -163 0 -116 111 -187 189 -121 30 25 31 25 31 5 0 -14 6 -21 20 -21
19 0 20 7 20 205 0 198 -1 205 -20 205 -18 0 -20 -7 -20 -70z m-31 -104 c47
-50 33 -172 -23 -197 -64 -29 -120 30 -113 119 7 93 82 136 136 78z" />
<path d="M11150 335 l0 -205 25 0 25 0 0 205 0 205 -25 0 -25 0 0 -205z" />
<path d="M4240 474 c0 -27 -5 -37 -20 -41 -11 -3 -20 -13 -20 -23 0 -10 9 -20
20 -23 19 -5 20 -14 20 -119 0 -126 5 -138 57 -138 26 0 33 4 33 20 0 13 -7
20 -19 20 -26 0 -31 18 -31 126 0 94 0 94 25 94 18 0 25 5 25 20 0 15 -7 20
-25 20 -22 0 -25 4 -25 40 0 33 -3 40 -20 40 -16 0 -20 -7 -20 -36z" />
<path d="M7910 474 c0 -27 -5 -37 -20 -41 -11 -3 -20 -13 -20 -23 0 -10 9 -20
20 -23 19 -5 20 -14 20 -119 0 -126 5 -138 57 -138 26 0 33 4 33 19 0 13 -8
21 -22 23 -22 3 -23 8 -26 111 l-3 107 26 0 c18 0 25 5 25 20 0 15 -7 20 -25
20 -22 0 -25 4 -25 40 0 33 -3 40 -20 40 -16 0 -20 -7 -20 -36z"/>
<path d="M2087 430 c-54 -16 -83 -59 -71 -106 7 -29 38 -46 111 -63 63 -15 89
-40 74 -69 -23 -42 -124 -39 -143 4 -14 29 -48 33 -48 5 0 -11 10 -32 23 -47
19 -22 34 -28 79 -32 88 -7 138 28 138 97 0 42 -27 66 -91 81 -96 22 -123 54
-74 86 30 19 81 11 98 -17 13 -21 57 -26 57 -6 0 25 -32 56 -68 67 -42 11 -47
11 -85 0z"/>
<path d="M2830 430 c-38 -9 -70 -42 -70 -71 0 -29 28 -23 61 12 25 27 34 30
61 25 43 -9 60 -25 56 -55 -3 -24 -9 -27 -68 -37 -80 -13 -108 -27 -121 -61
-33 -88 63 -152 156 -104 34 18 40 19 48 6 10 -19 67 -20 67 -1 0 8 -7 16 -15
19 -11 5 -15 31 -17 118 -3 106 -4 113 -28 130 -31 22 -84 29 -130 19z m110
-181 c0 -44 -15 -66 -55 -79 -64 -21 -112 18 -81 65 14 21 38 30 129 44 4 0 7
-13 7 -30z" />
<path d="M4450 427 c-56 -19 -80 -66 -80 -154 0 -69 2 -75 33 -109 26 -28 42
-37 78 -41 89 -10 144 39 156 137 9 76 -18 137 -71 161 -47 21 -68 22 -116 6z
m84 -37 c70 -26 74 -184 6 -220 -31 -16 -87 -4 -104 23 -36 57 -26 150 21 186
29 24 41 25 77 11z" />
<path d="M5080 423 c-50 -26 -75 -75 -75 -148 1 -75 22 -117 71 -140 67 -32
147 -6 181 58 24 44 24 144 0 180 -39 60 -116 81 -177 50z m122 -54 c39 -46
29 -163 -16 -194 -76 -54 -158 41 -127 145 22 76 100 102 143 49z" />
<path d="M5885 425 c-22 -8 -41 -15 -42 -15 -1 0 -23 -61 -23 -66 0 -2 11 -4
24 -4 15 0 26 7 29 20 12 46 109 49 129 4 16 -35 -4 -52 -70 -60 -95 -11 -122
-32 -122 -94 0 -42 9 -59 41 -75 38 -20 67 -19 114 5 35 18 41 19 51 5 14 -18
74 -20 74 -2 0 7 -9 18 -20 25 -18 11 -20 23 -20 117 0 92 -3 108 -20 125 -11
11 -30 20 -42 20 -13 0 -32 2 -43 5 -11 3 -38 -2 -60 -10z m122 -182 c-10 -60
-72 -97 -123 -74 -17 8 -24 19 -24 40 0 37 14 48 75 59 80 16 78 16 72 -25z" />
<path d="M7663 429 c-40 -12 -63 -43 -63 -85 0 -41 17 -54 109 -84 61 -20 77
-29 79 -47 4 -27 -32 -53 -73 -53 -35 0 -75 24 -75 46 0 8 -10 14 -25 14 -29
0 -31 -10 -10 -50 18 -35 71 -54 132 -47 51 5 89 36 98 79 11 49 -15 75 -101
99 -81 24 -102 44 -80 75 21 28 92 26 116 -4 10 -12 27 -22 39 -22 17 0 19 4
12 22 -18 49 -94 76 -158 57z" />
<path d="M8132 430 c-43 -10 -72 -37 -72 -67 0 -31 33 -31 48 1 24 54 127 39
127 -19 0 -29 -1 -30 -75 -42 -59 -10 -80 -18 -97 -38 -32 -37 -30 -80 6 -116
36 -35 75 -38 133 -8 37 19 42 19 50 5 11 -20 68 -22 68 -2 0 8 -7 16 -15 20
-12 4 -15 26 -15 111 0 99 -2 107 -25 130 -13 14 -35 25 -49 25 -13 0 -30 2
-38 4 -7 2 -28 0 -46 -4z m108 -183 c0 -61 -76 -105 -125 -73 -51 33 -20 82
62 96 26 4 51 8 56 9 4 0 7 -14 7 -32z"/>
<path d="M8750 423 c-50 -26 -75 -75 -75 -148 1 -76 24 -121 73 -142 68 -28
146 -2 179 60 22 43 23 146 0 181 -39 59 -117 80 -177 49z m100 -38 c51 -26
62 -113 24 -187 -17 -32 -70 -46 -104 -28 -45 24 -63 114 -34 175 24 51 65 65
114 40z" />
<path d="M10897 426 c-43 -16 -40 -14 -56 -43 -17 -32 -14 -43 13 -43 15 0 26
7 29 20 12 46 109 49 129 4 16 -35 -4 -52 -70 -60 -95 -11 -122 -32 -122 -94
0 -42 9 -59 41 -75 38 -20 67 -19 114 5 35 18 41 19 51 5 14 -18 74 -20 74 -2
0 7 -9 18 -20 25 -18 11 -20 23 -20 117 0 92 -3 108 -20 125 -11 11 -30 20
-42 20 -13 0 -32 2 -43 5 -11 3 -37 -2 -58 -9z m120 -183 c-10 -60 -72 -97
-123 -74 -17 8 -24 19 -24 40 0 37 14 48 75 59 80 16 78 16 72 -25z" />
<path d="M11675 433 c-62 -16 -95 -72 -95 -161 0 -121 92 -185 196 -136 65 31
95 152 57 231 -24 52 -95 82 -158 66z m99 -63 c47 -46 23 -184 -36 -204 -62
-22 -114 34 -112 121 2 95 87 143 148 83z" />
<path d="M780 280 l0 -150 25 0 25 0 0 108 c0 100 2 110 23 130 27 26 79 29
101 6 13 -12 16 -39 16 -130 l0 -114 25 0 25 0 0 124 c0 110 -2 126 -21 150
-17 22 -28 26 -73 26 -30 0 -60 -6 -72 -15 -25 -19 -34 -19 -34 0 0 8 -9 15
-20 15 -19 0 -20 -7 -20 -150z" />
<path d="M1100 280 l0 -150 25 0 25 0 0 150 0 150 -25 0 -25 0 0 -150z"/>
<path d="M1216 363 c91 -247 85 -233 113 -233 24 0 29 10 82 150 l56 150 -28
0 c-26 0 -29 -5 -66 -115 -20 -63 -40 -115 -43 -115 -3 0 -23 52 -43 115 -37
111 -39 115 -67 115 l-29 0 25 -67z" />
<path d="M1556 409 c-39 -31 -56 -71 -56 -136 0 -120 93 -186 194 -138 27 13
66 59 66 79 0 13 -48 5 -53 -8 -3 -8 -17 -22 -31 -32 -54 -35 -126 8 -126 76
0 19 6 20 105 20 l105 0 0 46 c0 39 -5 51 -34 80 -30 30 -40 34 -89 34 -40 0
-61 -5 -81 -21z m149 -63 c7 -17 11 -34 9 -38 -3 -5 -41 -8 -85 -8 -70 0 -79
2 -79 19 0 26 36 69 63 73 39 7 78 -13 92 -46z" />
<path d="M1830 280 l0 -150 25 0 c25 0 25 0 25 99 0 90 2 103 23 126 13 16 34
28 50 28 21 2 27 7 27 25 0 30 -45 30 -77 0 l-23 -21 0 21 c0 17 -6 22 -25 22
l-25 0 0 -150z" />
<path d="M2310 280 l0 -150 25 0 25 0 0 150 0 150 -25 0 -25 0 0 -150z"/>
<path d="M3910 304 c0 -69 5 -134 10 -144 6 -11 28 -24 50 -30 38 -10 57 -6
123 28 4 2 7 -3 7 -12 0 -9 8 -16 20 -16 19 0 20 7 20 150 l0 150 -25 0 -25 0
0 -104 c0 -95 -2 -107 -22 -130 -35 -38 -63 -42 -93 -12 -24 24 -25 31 -25
136 0 103 -1 110 -20 110 -19 0 -20 -7 -20 -126z" />
<path d="M4700 280 l0 -150 25 0 c25 0 25 0 25 95 0 134 25 174 101 163 37 -5
49 -43 49 -155 0 -96 1 -103 20 -103 19 0 20 7 20 130 0 117 -2 132 -20 150
-24 24 -106 28 -136 5 -25 -19 -34 -19 -34 0 0 9 -9 15 -25 15 l-25 0 0 -150z" />
<path d="M5340 280 l0 -150 24 0 c24 0 24 1 28 109 4 125 16 151 74 151 47 0
54 -20 54 -149 l0 -111 25 0 25 0 0 110 c0 97 2 112 20 130 22 22 69 27 88 8
8 -8 12 -52 12 -130 l0 -118 25 0 25 0 0 130 c0 117 -2 132 -20 150 -25 25
-105 27 -138 4 -21 -15 -25 -15 -41 0 -23 21 -104 22 -121 1 -7 -8 -16 -15
-21 -15 -5 0 -9 7 -9 15 0 9 -9 15 -25 15 l-25 0 0 -150z" />
<path d="M6652 402 c-77 -72 -64 -225 23 -266 67 -32 148 -7 180 54 15 29 15
30 -6 30 -12 0 -32 -11 -45 -25 -28 -30 -68 -41 -100 -26 -26 11 -59 75 -49
91 4 6 53 10 111 10 l104 0 0 30 c0 82 -51 130 -138 130 -41 0 -55 -5 -80 -28z
m148 -40 c11 -13 20 -33 20 -44 0 -17 -7 -19 -82 -16 -77 3 -83 5 -80 23 12
68 100 91 142 37z" />
<path d="M9542 418 c-77 -37 -91 -193 -24 -261 58 -57 163 -42 205 31 l19 32
-25 0 c-15 0 -31 -9 -41 -25 -21 -32 -77 -43 -111 -21 -23 15 -47 72 -38 89 2
4 51 7 109 7 l104 0 0 35 c0 43 -22 88 -52 109 -26 18 -111 20 -146 4z m127
-54 c12 -15 21 -35 21 -45 0 -17 -9 -19 -80 -19 -71 0 -80 2 -80 19 0 10 9 30
21 45 16 20 29 26 59 26 30 0 43 -6 59 -26z" />
<path d="M10380 280 l0 -150 25 0 25 0 0 150 0 150 -25 0 -25 0 0 -150z"/>
<path d="M11319 415 c-37 -20 -59 -73 -59 -140 0 -93 40 -145 113 -145 21 0
51 7 67 15 29 15 30 15 30 -9 0 -82 -82 -125 -136 -71 -28 28 -64 33 -64 10 0
-9 11 -27 25 -40 20 -21 34 -25 85 -25 120 0 133 25 138 253 l4 167 -26 0
c-17 0 -26 -5 -26 -16 0 -14 -2 -14 -22 0 -28 20 -94 20 -129 1z m121 -43 c24
-19 38 -91 26 -137 -15 -61 -92 -88 -131 -45 -36 40 -36 140 0 180 23 25 75
26 105 2z" />
</g>
</svg>
